<?xml version="1.0" encoding="UTF-8" standalone="no"?>
<!DOCTYPE svg PUBLIC "-//W3C//DTD SVG 1.1//EN" "http://www.w3.org/Graphics/SVG/1.1/DTD/svg11.dtd">
<svg width="100%" height="100%" viewBox="0 0 165 165" version="1.1" xmlns="http://www.w3.org/2000/svg" xmlns:xlink="http://www.w3.org/1999/xlink" xml:space="preserve" xmlns:serif="http://www.serif.com/" style="fill-rule:evenodd;clip-rule:evenodd;stroke-linejoin:round;stroke-miterlimit:2;">
    <g transform="matrix(1,0,0,1,-2530,-1708)">
        <g transform="matrix(4.16667,0,0,4.16667,0,0)">
            <path d="M625.3,429.92C624.602,429.41 623.745,429.104 622.816,429.104C620.488,429.104 618.594,430.998 618.594,433.326C618.594,435.654 620.488,437.549 622.816,437.549C625.145,437.549 627.039,435.654 627.039,433.326C627.039,432.397 626.734,431.54 626.223,430.842L629.331,427.734C630.624,429.238 631.408,431.191 631.408,433.326C631.408,438.064 627.554,441.918 622.817,441.918C618.079,441.918 614.224,438.064 614.224,433.326C614.224,428.59 618.079,424.735 622.817,424.735C624.951,424.735 626.904,425.52 628.409,426.813L625.3,429.92ZM622.355,433.787C622.482,433.915 622.649,433.979 622.816,433.979C622.983,433.979 623.15,433.915 623.277,433.787L625.286,431.779C625.568,432.228 625.735,432.758 625.735,433.326C625.735,434.936 624.425,436.244 622.816,436.244C621.207,436.244 619.898,434.936 619.898,433.326C619.898,431.718 621.207,430.409 622.816,430.409C623.385,430.409 623.915,430.575 624.363,430.857L622.355,432.865C622.1,433.12 622.1,433.533 622.355,433.787ZM622.816,419.085C626.508,419.085 629.876,420.498 632.41,422.811L629.332,425.888C627.59,424.36 625.311,423.431 622.817,423.431C617.359,423.431 612.919,427.87 612.919,433.326C612.919,438.783 617.359,443.223 622.817,443.223C628.273,443.223 632.712,438.783 632.712,433.326C632.712,430.832 631.783,428.553 630.255,426.811L633.332,423.733C635.645,426.267 637.057,429.634 637.057,433.326C637.057,441.18 630.669,447.568 622.816,447.568C614.963,447.568 608.575,441.18 608.575,433.326C608.575,425.474 614.963,419.085 622.816,419.085ZM622.816,448.872C631.388,448.872 638.362,441.898 638.362,433.326C638.362,429.274 636.802,425.581 634.254,422.812L637.18,419.885C637.284,420.031 637.446,420.136 637.639,420.157L643.762,420.83C643.787,420.833 643.811,420.834 643.834,420.834C644.163,420.834 644.445,420.587 644.482,420.253C644.521,419.895 644.263,419.572 643.905,419.533L638.163,418.902L639.846,417.219C639.874,417.226 639.9,417.233 639.93,417.237L646.053,417.91C646.078,417.912 646.102,417.914 646.125,417.914C646.454,417.914 646.736,417.667 646.773,417.333C646.812,416.975 646.554,416.652 646.195,416.613L641.021,416.045L644.164,412.901C644.418,412.646 644.418,412.233 644.164,411.979C643.909,411.724 643.496,411.724 643.242,411.979L640.018,415.202L638.317,410.813C638.188,410.477 637.81,410.311 637.474,410.44C637.138,410.57 636.971,410.948 637.101,411.284L638.988,416.155C638.995,416.173 639.008,416.187 639.016,416.204L637.628,417.592L635.924,413.053C635.797,412.716 635.421,412.545 635.084,412.672C634.747,412.798 634.576,413.174 634.702,413.511L636.588,418.534C636.597,418.558 636.613,418.575 636.624,418.597L633.332,421.889C630.562,419.34 626.868,417.78 622.816,417.78C614.245,417.78 607.27,424.755 607.27,433.326C607.27,441.898 614.245,448.872 622.816,448.872Z" style="fill:rgb(233,165,4);fill-rule:nonzero;"/>
        </g>
    </g>
</svg>
