<?xml version="1.0" encoding="utf-8"?>
<!-- Generator: Adobe Illustrator 19.0.0, SVG Export Plug-In . SVG Version: 6.00 Build 0)  -->
<svg version="1.1" id="Layer_1" xmlns="http://www.w3.org/2000/svg" xmlns:xlink="http://www.w3.org/1999/xlink" x="0px" y="0px"
	 viewBox="-437 289 24 24" style="enable-background:new -437 289 24 24;" xml:space="preserve">
<style type="text/css">
	.st0{fill:#007FB6;}
</style>
<path class="st0" d="M-428,311h-4c-1.7,0-3-1.3-3-3v-14c0-1.7,1.3-3,3-3h4c0.6,0,1,0.4,1,1s-0.4,1-1,1h-4c-0.6,0-1,0.4-1,1v14
	c0,0.6,0.4,1,1,1h4c0.6,0,1,0.4,1,1S-427.4,311-428,311z"/>
<path class="st0" d="M-421,307c-0.3,0-0.5-0.1-0.7-0.3c-0.4-0.4-0.4-1,0-1.4l4.3-4.3l-4.3-4.3c-0.4-0.4-0.4-1,0-1.4s1-0.4,1.4,0l5,5
	c0.4,0.4,0.4,1,0,1.4l-5,5C-420.5,306.9-420.7,307-421,307z"/>
<path class="st0" d="M-416,302h-12c-0.6,0-1-0.4-1-1s0.4-1,1-1h12c0.6,0,1,0.4,1,1S-415.4,302-416,302z"/>
</svg>
